{"title":"Peigal Jaakirathai 2016 Tamil Movies HD TS XviD New +Sample ☻rDX","uid":13134327,"size":739587707,"categoryP":"video","categoryS":"movies","magnet":"?xt=urn:btih:8dc19e099e20970512307d6706cef3c761647c39&amp;dn=Peigal+Jaakirathai+2016+Tamil+Movies+HD+TS+XviD+New+%2BSample+%E2%98%BBrDX&amp;tr=udp%3A%2F%2Ftracker.leechers-paradise.org%3A6969&amp;tr=udp%3A%2F%2Fzer0day.ch%3A1337&amp;tr=udp%3A%2F%2Fopen.demonii.com%3A1337&amp;tr=udp%3A%2F%2Ftracker.coppersurfer.tk%3A6969&amp;tr=udp%3A%2F%2Fexodus.desync.com%3A6969","seeders":6,"leechers":2,"uploader":"basicssom","files":2,"time":1451881209,"description":"----------------------------------------------------------------\r\nPeigal Jaakirathai 2016 Tamil Movies HD TS XviD AAC New Source with Sample ~ ☻rDX☻\r\n\r\nSCREEN SHOTS &amp; POSTER:\r\n  \nhttp://doctorhosts.com/2016/1/PeigalJaakirathai/11.html  \nhttp://doctorhosts.com/2016/1/PeigalJaakirathai/1.html  \nhttp://doctorhosts.com/2016/1/PeigalJaakirathai/2.html  \nhttp://doctorhosts.com/2016/1/PeigalJaakirathai/3.html  \nhttp://doctorhosts.com/2016/1/PeigalJaakirathai/4.html  \nhttp://doctorhosts.com/2016/1/PeigalJaakirathai/5.html  \nhttp://doctorhosts.com/2016/1/PeigalJaakirathai/6.html  \nhttp://doctorhosts.com/2016/1/PeigalJaakirathai/7.html  \nhttp://doctorhosts.com/2016/1/PeigalJaakirathai/8.html  \nhttp://doctorhosts.com/2016/1/PeigalJaakirathai/9.html  \nhttp://doctorhosts.com/2016/1/PeigalJaakirathai/10.html\r\n\r\nFormat                                   : Matroska\r\nFormat version                           : Version 4 / Version 2\r\nFile size                                : 700 MiB\r\nDuration                                 : 2h 0mn\r\nOverall bit rate                         : 815 Kbps\r\nMovie name                               : Peigal Jaakirathai 2016 Tamil Movies HD TS XviD AAC New Source ~ rDX ~\r\n\r\nVideo\r\nID                                       : 1\r\nFormat                                   : AVC\r\nFormat/Info                              : Advanced Video Codec\r\nFormat profile                           :   \r\nFormat settings, CABAC                   : Yes\r\nFormat settings, ReFrames                : 4 frames\r\nCodec ID                                 : V_MPEG4/ISO/AVC\r\nDuration                                 : 2h 0mn\r\nBit rate                                 : 717 Kbps\r\nWidth                                    : 608 pixels\r\nHeight                                   : 256 pixels\r\nDisplay aspect ratio                     : 2.40:1\r\nFrame rate mode                          : Constant\r\nFrame rate                               : 25.000 fps\r\nColor space                              : YUV\r\nChroma subsampling                       : 4:2:0\r\nBit depth                                : 8 bits\r\nScan type                                : Progressive\r\nBits/(Pixel*Frame)                       : 0.184\r\nStream size                              : 604 MiB (86%)\r\nTitle                                    : ~ rDX ~\r\nWriting library                          : XviD\r\nLanguage                                 : Tamil\r\nDefault                                  : Yes\r\nForced                                   : Yes\r\n\r\nAudio\r\nID                                       : 2\r\nFormat                                   : MPEG Audio\r\nFormat version                           : Version 1\r\nFormat profile                           : Layer 3\r\nMode                                     : Joint stereo\r\nMode extension                           : MS Stereo\r\nCodec ID                                 : A_MPEG/L3\r\nCodec ID/Hint                            : MP3\r\nDuration                                 : 2h 0mn\r\nBit rate mode                            : Constant\r\nBit rate                                 : 96.0 Kbps\r\nChannel(s)                               : 2 channels\r\nSampling rate                            : 44.1 KHz\r\nCompression mode                         : Lossy\r\nStream size                              : 82.5 MiB (12%)\r\nTitle                                    : ~ rDX ~\r\nLanguage                                 : Tamil\r\nDefault                                  : Yes\r\nForced                                   : Yes\r\n\r\nIMDB                                     \r\nna","torrent":{"xt":"urn:btih:8dc19e099e20970512307d6706cef3c761647c39","amp;dn":"Peigal+Jaakirathai+2016+Tamil+Movies+HD+TS+XviD+New+%2BSample+%E2%98%BBrDX","amp;tr":["udp%3A%2F%2Ftracker.leechers-paradise.org%3A6969","udp%3A%2F%2Fzer0day.ch%3A1337","udp%3A%2F%2Fopen.demonii.com%3A1337","udp%3A%2F%2Ftracker.coppersurfer.tk%3A6969","udp%3A%2F%2Fexodus.desync.com%3A6969"],"infoHash":"8dc19e099e20970512307d6706cef3c761647c39","infoHashBuffer":{"type":"Buffer","data":[141,193,158,9,158,32,151,5,18,48,125,103,6,206,243,199,97,100,124,57]},"announce":[],"urlList":[]}}